<svg width="32" height="28" viewBox="0 0 32 28" fill="none" xmlns="http://www.w3.org/2000/svg">
<path d="M2 15.9986L25.72 15.9986L18.46 24.7178C18.1205 25.1262 17.9572 25.6527 18.006 26.1815C18.0547 26.7103 18.3116 27.1981 18.72 27.5375C19.1284 27.877 19.655 28.0403 20.1838 27.9915C20.7127 27.9428 21.2005 27.686 21.54 27.2776L31.54 15.2786C31.6073 15.1832 31.6674 15.0829 31.72 14.9787C31.72 14.8787 31.72 14.8187 31.86 14.7187C31.9507 14.4894 31.9981 14.2453 32 13.9987C31.9981 13.7522 31.9507 13.5081 31.86 13.2788C31.86 13.1788 31.86 13.1188 31.72 13.0188C31.6674 12.9146 31.6073 12.8143 31.54 12.7189L21.54 0.719938C21.352 0.494194 21.1165 0.312651 20.8503 0.188219C20.5841 0.0637875 20.2938 -0.00047493 20 1.90735e-06C19.5327 -0.000909805 19.0798 0.161827 18.72 0.459963C18.5175 0.627846 18.3501 0.834028 18.2274 1.0667C18.1047 1.29938 18.0291 1.55397 18.0049 1.8159C17.9808 2.07783 18.0085 2.34195 18.0866 2.59313C18.1647 2.84432 18.2916 3.07763 18.46 3.27971L25.72 11.9989L2 11.9989C1.46957 11.9989 0.960857 12.2096 0.585785 12.5847C0.210712 12.9597 0 13.4684 0 13.9987C0 14.5291 0.210712 15.0378 0.585785 15.4128C0.960857 15.7879 1.46957 15.9986 2 15.9986Z" fill="black"/>
</svg>
