<svg width="32" height="32" viewBox="0 0 32 32" fill="none" xmlns="http://www.w3.org/2000/svg">
<path d="M21.9652 7.21044L24.7892 10.0331L21.9652 7.21044ZM23.7812 4.72377L16.1452 12.3598C15.7506 12.7538 15.4815 13.2557 15.3718 13.8024L14.6665 17.3331L18.1972 16.6264C18.7438 16.5171 19.2452 16.2491 19.6398 15.8544L27.2758 8.21844C27.5053 7.98897 27.6873 7.71656 27.8115 7.41675C27.9357 7.11694 27.9996 6.79561 27.9996 6.4711C27.9996 6.14659 27.9357 5.82526 27.8115 5.52545C27.6873 5.22564 27.5053 4.95323 27.2758 4.72377C27.0464 4.49431 26.774 4.31229 26.4742 4.1881C26.1743 4.06392 25.853 4 25.5285 4C25.204 4 24.8827 4.06392 24.5829 4.1881C24.283 4.31229 24.0106 4.49431 23.7812 4.72377V4.72377Z" stroke="black" stroke-opacity="0.19" stroke-width="2" stroke-linecap="round" stroke-linejoin="round"/>
<path d="M25.3333 19.9993V23.9993C25.3333 24.7066 25.0523 25.3849 24.5522 25.885C24.0521 26.3851 23.3738 26.666 22.6666 26.666H7.99992C7.29267 26.666 6.6144 26.3851 6.1143 25.885C5.6142 25.3849 5.33325 24.7066 5.33325 23.9993V9.33268C5.33325 8.62544 5.6142 7.94716 6.1143 7.44706C6.6144 6.94697 7.29267 6.66602 7.99992 6.66602H11.9999" stroke="black" stroke-opacity="0.19" stroke-width="2" stroke-linecap="round" stroke-linejoin="round"/>
</svg>
