<svg width="21" height="21" viewBox="0 0 21 21" fill="none" xmlns="http://www.w3.org/2000/svg">
<path d="M9.8553 0.221221C10.0396 0.0778436 10.2665 0 10.5 0C10.7335 0 10.9604 0.0778436 11.1447 0.221221L19.7841 6.94099C20.163 7.23571 20.4695 7.61312 20.6802 8.04439C20.891 8.47567 21.0003 8.9494 21 9.4294V18.9001C21 19.457 20.7787 19.9911 20.3849 20.3849C19.9911 20.7788 19.457 21 18.9 21H14.7C14.143 21 13.6089 20.7788 13.2151 20.3849C12.8212 19.9911 12.6 19.457 12.6 18.9001V12.6003H8.4V18.9001C8.4 19.457 8.17875 19.9911 7.78492 20.3849C7.3911 20.7788 6.85695 21 6.3 21H2.1C1.54305 21 1.0089 20.7788 0.615076 20.3849C0.221249 19.9911 0 19.457 0 18.9001V9.4294C0 8.45504 0.4494 7.53947 1.218 6.94099L9.8553 0.221221ZM10.5 2.37995L2.5053 8.59783C2.37873 8.69629 2.27638 8.82243 2.20613 8.96658C2.13587 9.11072 2.09957 9.26905 2.1 9.4294V18.9001H6.3V12.6003C6.3 12.0434 6.52125 11.5092 6.91508 11.1154C7.3089 10.7216 7.84304 10.5004 8.4 10.5004H12.6C13.157 10.5004 13.6911 10.7216 14.0849 11.1154C14.4787 11.5092 14.7 12.0434 14.7 12.6003V18.9001H18.9V9.4294C18.9004 9.26905 18.8641 9.11072 18.7939 8.96658C18.7236 8.82243 18.6213 8.69629 18.4947 8.59783L10.5 2.38205V2.37995Z" fill="black"/>
</svg>
