<svg width="50" height="50" viewBox="0 0 50 50" fill="none" xmlns="http://www.w3.org/2000/svg">
<circle cx="25" cy="25" r="24.5" stroke="white"/>
<path d="M25.0001 20.1925C22.34 20.1925 20.1931 22.3394 20.1931 24.9995C20.1931 27.6597 22.34 29.8066 25.0001 29.8066C27.6603 29.8066 29.8071 27.6597 29.8071 24.9995C29.8071 22.3394 27.6603 20.1925 25.0001 20.1925ZM25.0001 28.1237C23.2798 28.1237 21.8759 26.7198 21.8759 24.9995C21.8759 23.2792 23.2798 21.8753 25.0001 21.8753C26.7204 21.8753 28.1243 23.2792 28.1243 24.9995C28.1243 26.7198 26.7204 28.1237 25.0001 28.1237ZM30.004 18.8753C29.3829 18.8753 28.8814 19.3769 28.8814 19.998C28.8814 20.6191 29.3829 21.1206 30.004 21.1206C30.6251 21.1206 31.1267 20.6214 31.1267 19.998C31.1269 19.8505 31.0979 19.7044 31.0416 19.5681C30.9852 19.4318 30.9026 19.308 30.7983 19.2037C30.694 19.0994 30.5701 19.0167 30.4339 18.9604C30.2976 18.904 30.1515 18.8751 30.004 18.8753ZM34.3704 24.9995C34.3704 23.7058 34.3821 22.4237 34.3095 21.1323C34.2368 19.6323 33.8946 18.3011 32.7978 17.2042C31.6985 16.105 30.3696 15.7652 28.8696 15.6925C27.5759 15.6198 26.2939 15.6316 25.0025 15.6316C23.7087 15.6316 22.4267 15.6198 21.1353 15.6925C19.6353 15.7652 18.304 16.1073 17.2071 17.2042C16.1079 18.3034 15.7681 19.6323 15.6954 21.1323C15.6228 22.4261 15.6345 23.7081 15.6345 24.9995C15.6345 26.2909 15.6228 27.5753 15.6954 28.8667C15.7681 30.3667 16.1103 31.698 17.2071 32.7948C18.3064 33.8941 19.6353 34.2339 21.1353 34.3066C22.429 34.3792 23.711 34.3675 25.0025 34.3675C26.2962 34.3675 27.5782 34.3792 28.8696 34.3066C30.3696 34.2339 31.7009 33.8917 32.7978 32.7948C33.897 31.6956 34.2368 30.3667 34.3095 28.8667C34.3845 27.5753 34.3704 26.2933 34.3704 24.9995ZM32.3079 30.5261C32.1368 30.9527 31.9306 31.2714 31.6001 31.5995C31.2696 31.93 30.9532 32.1362 30.5267 32.3073C29.2939 32.7972 26.3665 32.687 25.0001 32.687C23.6337 32.687 20.704 32.7972 19.4712 32.3097C19.0446 32.1386 18.7259 31.9323 18.3978 31.6019C18.0673 31.2714 17.861 30.955 17.69 30.5284C17.2025 29.2933 17.3126 26.3659 17.3126 24.9995C17.3126 23.6331 17.2025 20.7034 17.69 19.4706C17.861 19.0441 18.0673 18.7253 18.3978 18.3972C18.7282 18.0691 19.0446 17.8605 19.4712 17.6894C20.704 17.2019 23.6337 17.312 25.0001 17.312C26.3665 17.312 29.2962 17.2019 30.529 17.6894C30.9556 17.8605 31.2743 18.0667 31.6025 18.3972C31.9329 18.7277 32.1392 19.0441 32.3103 19.4706C32.7978 20.7034 32.6876 23.6331 32.6876 24.9995C32.6876 26.3659 32.7978 29.2933 32.3079 30.5261Z" fill="white"/>
</svg>
