<svg width="32" height="28" viewBox="0 0 32 28" fill="none" xmlns="http://www.w3.org/2000/svg">
<path d="M30 12.0014H6.28L13.54 3.28221C13.8795 2.87381 14.0428 2.3473 13.994 1.81849C13.9453 1.28969 13.6884 0.80191 13.28 0.462463C12.8716 0.123016 12.345 -0.0402928 11.8162 0.00846224C11.2873 0.0572173 10.7995 0.314043 10.46 0.72244L0.46 12.7214C0.392721 12.8168 0.332559 12.9171 0.28 13.0213C0.28 13.1213 0.28 13.1813 0.14 13.2813C0.0493473 13.5106 0.00188224 13.7547 0 14.0013C0.00188224 14.2478 0.0493473 14.4919 0.14 14.7212C0.14 14.8212 0.14 14.8812 0.28 14.9812C0.332559 15.0854 0.392721 15.1857 0.46 15.2811L10.46 27.2801C10.648 27.5058 10.8835 27.6873 11.1497 27.8118C11.4159 27.9362 11.7062 28.0005 12 28C12.4673 28.0009 12.9202 27.8382 13.28 27.54C13.4825 27.3722 13.6499 27.166 13.7726 26.9333C13.8953 26.7006 13.9709 26.446 13.9951 26.1841C14.0192 25.9222 13.9915 25.6581 13.9134 25.4069C13.8353 25.1557 13.7084 24.9224 13.54 24.7203L6.28 16.0011H30C30.5304 16.0011 31.0391 15.7904 31.4142 15.4153C31.7893 15.0403 32 14.5316 32 14.0013C32 13.4709 31.7893 12.9622 31.4142 12.5872C31.0391 12.2121 30.5304 12.0014 30 12.0014Z" fill="black"/>
</svg>
