<svg width="50" height="50" viewBox="0 0 50 50" fill="none" xmlns="http://www.w3.org/2000/svg">
<circle cx="25" cy="25" r="24.5" stroke="white"/>
<path d="M19.5001 17.2996C19.5001 18.4678 18.7191 19.4732 17.299 19.4732C15.9625 19.4732 15.1001 18.525 15.1001 17.3568C15.1001 16.1578 15.9361 15.0996 17.3001 15.0996C18.6641 15.0996 19.4737 16.1006 19.5001 17.2996ZM15.1001 34.8996V20.5996H19.5001V34.8996H15.1001Z" fill="white"/>
<path d="M21.7001 25.4887C21.7001 23.7892 21.644 22.3691 21.5879 21.1426H25.5413L25.7371 23.0379H25.8207C26.3773 22.1458 27.7413 20.8379 30.0249 20.8379C32.8101 20.8379 34.9001 22.7024 34.9001 26.7141V34.9003H30.5001V27.3532C30.5001 25.5998 29.8324 24.2622 28.3001 24.2622C27.1319 24.2622 26.5467 25.2082 26.2398 25.9881C26.1276 26.2675 26.1001 26.6569 26.1001 27.0474V34.9003H21.7001V25.4887Z" fill="white"/>
</svg>
