<svg width="23" height="21" viewBox="0 0 23 21" fill="none" xmlns="http://www.w3.org/2000/svg">
<path d="M2.23009 21H17.8407V18.9H2.23009V4.2H0V18.9C0 20.055 1.00354 21 2.23009 21ZM6.69027 0C5.46372 0 4.46018 0.945 4.46018 2.1V14.7C4.46018 15.855 5.46372 16.8 6.69027 16.8H20.0708C21.2973 16.8 22.3009 15.855 22.3009 14.7V2.1C22.3009 0.945 21.2973 0 20.0708 0H6.69027ZM20.0708 14.7H6.69027V2.1H20.0708V14.7ZM12.2655 12.6H14.4956V9.45H17.8407V7.35H14.4956V4.2H12.2655V7.35H8.92035V9.45H12.2655V12.6Z" fill="#979797"/>
</svg>
