<svg width="23" height="26" viewBox="0 0 23 26" fill="none" xmlns="http://www.w3.org/2000/svg">
<path d="M11.8322 24.1946C12.9895 24.9678 14.35 25.3805 15.7418 25.3805C17.6082 25.3805 19.3981 24.6391 20.7179 23.3194C22.0376 21.9997 22.779 20.2098 22.779 18.3434C22.779 16.9516 22.3663 15.591 21.593 14.4338C20.8198 13.2765 19.7207 12.3745 18.4348 11.8419C17.149 11.3093 15.734 11.1699 14.369 11.4415C13.0039 11.713 11.75 12.3832 10.7658 13.3674C9.78166 14.3515 9.11144 15.6054 8.83991 16.9705C8.56838 18.3356 8.70774 19.7505 9.24036 21.0364C9.77299 22.3223 10.675 23.4213 11.8322 24.1946ZM12.9068 14.1005C13.746 13.5398 14.7326 13.2405 15.7418 13.2405C17.0952 13.2405 18.3931 13.7782 19.3501 14.7351C20.3071 15.6921 20.8447 16.99 20.8447 18.3434C20.8447 19.3526 20.5454 20.3392 19.9847 21.1784C19.424 22.0176 18.627 22.6716 17.6946 23.0578C16.7622 23.4441 15.7362 23.5451 14.7463 23.3482C13.7565 23.1513 12.8472 22.6653 12.1336 21.9517C11.4199 21.238 10.9339 20.3288 10.737 19.3389C10.5401 18.3491 10.6412 17.323 11.0274 16.3906C11.4136 15.4582 12.0677 14.6612 12.9068 14.1005Z" fill="#979797" stroke="#979797" stroke-width="0.2"/>
<path d="M17.0492 21.0147L17.1199 21.0854L17.1906 21.0147L18.4133 19.7921L18.484 19.7214L18.4133 19.6506L16.7083 17.9456V14.874V14.774H16.6083H14.874H14.774V14.874V18.6981V18.7395L14.8033 18.7688L17.0492 21.0147Z" fill="#979797" stroke="#979797" stroke-width="0.2"/>
<path d="M20.0771 2.63429H16.7086V1V0.9H16.6086H14.8743H14.7743V1V2.63429H8.03715V1V0.9H7.93715H6.20286H6.10286V1V2.63429H2.73429C2.2478 2.63429 1.78125 2.82754 1.43725 3.17154C1.09325 3.51553 0.9 3.98209 0.9 4.46857V21.8114C0.9 22.2979 1.09325 22.7645 1.43725 23.1085C1.78125 23.4525 2.2478 23.6457 2.73429 23.6457H6.20286H6.30286V23.5457V21.8114V21.7114H6.20286H2.83429V4.56857H6.10286V6.20286V6.30286H6.20286H7.93715H8.03715V6.20286V4.56857H14.7743V6.20286V6.30286H14.8743H16.6086H16.7086V6.20286V4.56857H19.9771V9.67143V9.77143H20.0771H21.8114H21.9114V9.67143V4.46857C21.9114 3.98209 21.7182 3.51553 21.3742 3.17154C21.0302 2.82754 20.5636 2.63429 20.0771 2.63429Z" fill="#979797" stroke="#979797" stroke-width="0.2"/>
</svg>
