<svg width="23" height="23" viewBox="0 0 23 23" fill="none" xmlns="http://www.w3.org/2000/svg">
<path d="M13.54 18.85H13.39V19V20.5V20.65H13.54H19.5401H19.6901V20.5V19V18.85H19.5401H13.54Z" fill="#979797" stroke="#979797" stroke-width="0.3"/>
<path d="M13.54 15.85H13.39V16V17.5V17.65H13.54H22.5401H22.6901V17.5V16V15.85H22.5401H13.54Z" fill="#979797" stroke="#979797" stroke-width="0.3"/>
<path d="M13.54 12.85H13.39V13V14.5V14.65H13.54H22.5401H22.6901V14.5V13V12.85H22.5401H13.54Z" fill="#979797" stroke="#979797" stroke-width="0.3"/>
<path d="M10.4703 17.3742L7.40852 18.984L8.14616 14.6815L8.14617 14.6815L8.27966 13.9038L8.29302 13.826L8.23645 13.7709L7.67179 13.2212L7.6717 13.2211L4.54582 10.1731L8.8659 9.54553L9.6459 9.43228L9.7239 9.42096L9.75882 9.35029L10.1083 8.64303L10.1084 8.64296L12.0401 4.72826L13.9719 8.64296L13.9719 8.64303L14.3214 9.35029L14.3563 9.42096L14.4343 9.43228L15.2143 9.54553L15.2143 9.54553L20.8049 10.3593L20.9535 10.3809L20.9749 10.2322L21.1887 8.74644L21.21 8.59819L21.0618 8.57664L15.5515 7.77573L12.1746 0.933614L12.0401 0.661076L11.9056 0.933614L8.52872 7.77572L0.978429 8.87289L0.677678 8.9166L0.895292 9.12874L6.35888 14.455L5.0687 21.9749L5.01731 22.2744L5.28634 22.133L10.6099 19.3347L10.6901 19.2926V19.2019V17.5069V17.2586L10.4703 17.3742Z" fill="#979797" stroke="#979797" stroke-width="0.3"/>
</svg>
